<svg id="a4d7b11f-7ac6-4744-bdb4-27334c1240c8" data-name="1160f81c-3e91-4752-a994-d99be94ed788" xmlns="http://www.w3.org/2000/svg" viewBox="0 0 160.3 47.3"><defs><style>.ae8da5f3-f254-40ab-a474-d75b73a131b7{fill:#e14427;}.e44eb90e-6e0c-4842-b9e0-74bef628b6b2{fill:#231f20;}.\32 509c837-8d17-4b5e-ae2f-20d919550a69{fill:#8a8c8e;}</style></defs><title>logo</title><path class="ae8da5f3-f254-40ab-a474-d75b73a131b7" d="M60.78,38H58.34l-1,6.31h2.44a1.78,1.78,0,0,0,1.93-1.51v-.17c.08-1-.34-1.51-.59-1.51a1.44,1.44,0,0,0,1-1.35C62.21,39,62,38,60.78,38ZM61,42.49c-.17,1-.76,1.09-1.18,1.09H58.09l.34-2.35h1.85A.92.92,0,0,1,61,42.49Zm.5-2.86a1,1,0,0,1-1.09,1H58.59l.34-2H60.7c.5,0,.92.17.84,1Z"/><path class="ae8da5f3-f254-40ab-a474-d75b73a131b7" d="M66.75,39.72h-.5a1,1,0,0,1-.25.67l-1.68,3.19s-.5.08-.59-.34l-.59-3.53h-.67l.5,3.62c.17.84.67.92.92.92a5.21,5.21,0,0,1-1.43,1.85v.5c.92-.17,1.51-1,2.19-2.35l1.93-3.7A1,1,0,0,0,66.75,39.72Z"/><path class="e44eb90e-6e0c-4842-b9e0-74bef628b6b2" d="M72.21,38a7.17,7.17,0,0,1,1.93.25l-.08.5a16.89,16.89,0,0,0-2-.08c-.42,0-1.43,0-1.85,2.52-.25,1.43,0,2.52,1,2.52a5.58,5.58,0,0,0,1.68-.5l.25-1.68H71.71l.08-.42a4.76,4.76,0,0,1,1.51-.25h.59l-.5,3.28h-.5l-.08-.5a4,4,0,0,1-1.68.59c-1.6,0-1.85-1.77-1.6-3.19C69.94,39.13,70.45,38,72.21,38Z"/><path class="e44eb90e-6e0c-4842-b9e0-74bef628b6b2" d="M76.42,39.64a3.38,3.38,0,0,1,2.19.5L78,44.26H77.6l-.08-.5a3.69,3.69,0,0,1-1.6.59c-1,0-1.68-.42-1.35-2.44C74.9,40.06,75.75,39.72,76.42,39.64Zm-.5,4a3.48,3.48,0,0,0,1.6-.42l.42-2.86a4.66,4.66,0,0,0-1.51-.17c-.59.08-1,.25-1.35,1.85C75,43.33,75.24,43.67,75.91,43.67Z"/><path class="e44eb90e-6e0c-4842-b9e0-74bef628b6b2" d="M79.61,39.72H80l.08.5a3.4,3.4,0,0,1,1.77-.59,1.08,1.08,0,0,1,1.18,1.09v.34l-.5,3.19h-.67l.5-3.19c.08-.59-.17-.84-.67-.84a3.31,3.31,0,0,0-1.77.5l-.59,3.53h-.67Z"/><path class="e44eb90e-6e0c-4842-b9e0-74bef628b6b2" d="M85.58,39.64a7.63,7.63,0,0,1,1.93.25l-.08.42s-1.18-.08-1.93-.08c-.5,0-.84.08-1.09,1.68-.25,1.26.08,1.68.59,1.68.76,0,2-.08,2-.08l-.08.5a8.15,8.15,0,0,1-1.93.25c-.84,0-1.51-.59-1.18-2.35C84.15,39.8,84.83,39.64,85.58,39.64Z"/><path class="e44eb90e-6e0c-4842-b9e0-74bef628b6b2" d="M88.78,37.53h.67L89,40.22a3.4,3.4,0,0,1,1.77-.59A1.08,1.08,0,0,1,92,40.73v.34l-.5,3.19h-.67l.5-3.19c.08-.59-.17-.84-.67-.84a3.31,3.31,0,0,0-1.77.5l-.59,3.53H87.6Z"/><path class="e44eb90e-6e0c-4842-b9e0-74bef628b6b2" d="M93.15,39.72h.67l-.76,4.54h-.67Zm.08-1.18a.27.27,0,0,1,.25-.25h.42c.08,0,.17.08.17.25L94,39c0,.08-.08.17-.25.17h-.42a.18.18,0,0,1-.17-.17v-.08Z"/><path class="e44eb90e-6e0c-4842-b9e0-74bef628b6b2" d="M94.75,39.72h.42l.08.59a3.13,3.13,0,0,1,1.68-.59,1.09,1.09,0,0,1,1.09.76,4.21,4.21,0,0,1,2-.76,1.15,1.15,0,0,1,1.18,1.18v.25l-.5,3.11H100l.5-3.11a.74.74,0,0,0-.42-.84H100a3.31,3.31,0,0,0-1.77.5l-.08.34-.5,3.11h-.67l.5-3.11a.67.67,0,0,0-.5-.84h-.17a3,3,0,0,0-1.68.5l-.5,3.45h-.67Z"/><path class="e44eb90e-6e0c-4842-b9e0-74bef628b6b2" d="M104.16,39.64c1.09,0,1.77.34,1.6,1.35-.25,1.85-3,1.51-3.36,1.35-.17,1.09,0,1.43.59,1.43a17.57,17.57,0,0,0,2.1-.08l-.08.5a9,9,0,0,1-2.1.25c-1.09,0-1.35-.76-1.09-2.44C102.14,40.48,102.48,39.64,104.16,39.64Zm1,1.35c.08-.59-.25-.67-1-.67-1.35,0-1.43.84-1.6,1.6C102.57,41.91,104.92,42.16,105.17,41Z"/><path class="e44eb90e-6e0c-4842-b9e0-74bef628b6b2" d="M106,45.94h2.19a.79.79,0,0,0,.84-.84l.17-1.09a4.91,4.91,0,0,1-1.51.34c-1.35,0-1.51-1.09-1.35-2.44s.92-2.27,1.85-2.27a20.61,20.61,0,0,1,2.27.17l-.84,5.3a1.51,1.51,0,0,1-1.51,1.51h0l-2.19-.17Zm1.68-2.19a4.89,4.89,0,0,0,1.6-.25l.5-3.19h-1.51c-.92,0-1.18,1.26-1.26,1.68-.08.59-.34,1.77.67,1.77Z"/><path d="M2.91,30.9q.3-2,.76-5.44t1.09-8.25l-1.9-1.06.26-1.47,6.6-.86.91.4L8.52,29.29q-.18,1.26.58,1.26a1.38,1.38,0,0,0,.61-.17,6.66,6.66,0,0,0,.91-.59L11.08,31q-.15.18-.53.58a5.69,5.69,0,0,1-1,.79,6.93,6.93,0,0,1-1.44.7,5.66,5.66,0,0,1-1.93.31,4.09,4.09,0,0,1-2.61-.69A1.8,1.8,0,0,1,2.91,30.9Z"/><path class="ae8da5f3-f254-40ab-a474-d75b73a131b7" d="M8.36,10.94a2.35,2.35,0,0,1-1-.24,2.87,2.87,0,0,1-.86-.63,3.07,3.07,0,0,1-.58-.88,2.32,2.32,0,0,1-.2-1,3.64,3.64,0,0,1,.25-1.26,3.17,3.17,0,0,1,.64-1,3,3,0,0,1,1-.69A3.46,3.46,0,0,1,9,4.95a2.88,2.88,0,0,1,1.18.23,2.93,2.93,0,0,1,.89.6,2.5,2.5,0,0,1,.56.85,2.4,2.4,0,0,1,.17,1,4.31,4.31,0,0,1-.22,1.3A3,3,0,0,1,10.92,10a2.89,2.89,0,0,1-1,.72A3.92,3.92,0,0,1,8.36,10.94Z"/><path d="M15.08,17.15l-1.77-1,.26-1.47,6.18-.86.86.4-.26,3.47a10.82,10.82,0,0,1,1.21-1.58A7.69,7.69,0,0,1,23,14.9a6.81,6.81,0,0,1,1.67-.78,6.18,6.18,0,0,1,1.87-.28,5.75,5.75,0,0,1,1.76.26,3.29,3.29,0,0,1,1.38.85,4.12,4.12,0,0,1,.91,1.54,7.17,7.17,0,0,1,.33,2.34,9.9,9.9,0,0,1-.08,1.08q-.08.7-.21,1.54t-.26,1.7l-.26,1.56q-.1.63-.22,1.3t-.23,1.34q-.11.66-.17,1.25a9.46,9.46,0,0,0-.07,1q0,.59.2.75a.7.7,0,0,0,.45.16,1.28,1.28,0,0,0,.59-.16,7.12,7.12,0,0,0,.9-.6L32,31a7.27,7.27,0,0,1-.5.58,5.42,5.42,0,0,1-1,.8,6.93,6.93,0,0,1-1.49.71,5.93,5.93,0,0,1-2,.31,4.91,4.91,0,0,1-1.78-.26,2.53,2.53,0,0,1-1-.67,2,2,0,0,1-.45-.91,4.69,4.69,0,0,1-.11-1,7.5,7.5,0,0,1,.07-.88q.07-.54.18-1.19t.25-1.36l.26-1.4.26-1.46q.14-.8.25-1.63T25.14,21a13.91,13.91,0,0,0,.06-1.55,7.38,7.38,0,0,0-.1-1.12,2.19,2.19,0,0,0-.24-.71.89.89,0,0,0-.4-.37,1.39,1.39,0,0,0-.57-.11,2,2,0,0,0-1,.32,5.34,5.34,0,0,0-1.07.88,8.9,8.9,0,0,0-1,1.29,12.09,12.09,0,0,0-.87,1.54L18.27,33H12.92Z"/><path d="M34.1,30.41q0-.1,0-.26t0-.57q0-.41.13-1.15t.26-2l1.34-9.84h-2l.4-1.8,2-.78a5.32,5.32,0,0,0,.74-.8,9.68,9.68,0,0,0,.71-1.08q.34-.59.64-1.24T39,9.65H42.1L41.56,14H45l-.38,2.66h-3.4l-1.37,10q-.12.83-.18,1.35a7.58,7.58,0,0,0-.07.95q0,1.34,1.21,1.34A5.4,5.4,0,0,0,42.2,30a3.59,3.59,0,0,0,1.4-.73L44,30.61a8.14,8.14,0,0,1-.95.89,7.53,7.53,0,0,1-1.42.89,9.9,9.9,0,0,1-1.92.69,9.7,9.7,0,0,1-2.44.28,5,5,0,0,1-1.18-.14,2.68,2.68,0,0,1-1-.49,2.52,2.52,0,0,1-.72-.92A3.26,3.26,0,0,1,34.1,30.41Z"/><path d="M44.85,25.93a13.67,13.67,0,0,1,.81-4.87,11.83,11.83,0,0,1,2.27-3.84,10.42,10.42,0,0,1,3.4-2.52,9.94,9.94,0,0,1,4.24-.91,8,8,0,0,1,2.42.32,4.7,4.7,0,0,1,1.67.88,3.65,3.65,0,0,1,1,1.32A4.49,4.49,0,0,1,61,18a5.86,5.86,0,0,1-1.65,4.36,8.18,8.18,0,0,1-1.84,1.43,11.86,11.86,0,0,1-2.2,1,15.66,15.66,0,0,1-2.32.58,14.66,14.66,0,0,1-2.21.22,6.93,6.93,0,0,0,.83,3.81,2.59,2.59,0,0,0,2.26,1.23,5.39,5.39,0,0,0,1.76-.26A5.71,5.71,0,0,0,57,29.62a5.84,5.84,0,0,0,1-.88q.44-.48.77-.91l1.06,1.7a8.69,8.69,0,0,1-1,1.24,8,8,0,0,1-1.63,1.3,10.46,10.46,0,0,1-2.26,1,9.21,9.21,0,0,1-2.87.42,7.81,7.81,0,0,1-3.36-.65,6.21,6.21,0,0,1-2.24-1.73,6.88,6.88,0,0,1-1.25-2.43A10,10,0,0,1,44.85,25.93Zm5.93-2.39a5.44,5.44,0,0,0,1.6-.4,5.76,5.76,0,0,0,1.63-1,5.23,5.23,0,0,0,1.24-1.59,4.38,4.38,0,0,0,.45-2.16,4,4,0,0,0-.37-1.72,1.05,1.05,0,0,0-1-.58,2,2,0,0,0-1.13.34,3.23,3.23,0,0,0-.88.91,6.14,6.14,0,0,0-.65,1.32,12.46,12.46,0,0,0-.45,1.58q-.18.83-.29,1.68T50.78,23.54Z"/><path d="M64.66,17.15l-1.77-1,.26-1.47,5.47-.86.88.56-.23,4.34a8.62,8.62,0,0,1,.78-1.87,6.83,6.83,0,0,1,1.2-1.57,5.61,5.61,0,0,1,1.57-1.07,4.42,4.42,0,0,1,1.86-.4,1.89,1.89,0,0,1,.73.12,3.2,3.2,0,0,1,.43.21l-1.14,5.9a1.75,1.75,0,0,0-.57-.36,3.09,3.09,0,0,0-1.3-.22,10.34,10.34,0,0,0-1.89.17,3.1,3.1,0,0,0-1.35.53L67.83,33H62.5Z"/><path d="M80,27.17l-2-9.45a1.66,1.66,0,0,0-.26-.71.6.6,0,0,0-.45-.21,1,1,0,0,0-.45.06l-.36.19L76,15.76a6.3,6.3,0,0,1,.48-.45,5.82,5.82,0,0,1,.93-.65,7.09,7.09,0,0,1,1.31-.58,5,5,0,0,1,1.6-.25,3.52,3.52,0,0,1,2.23.59,2.61,2.61,0,0,1,.91,1.68L85,25.52l.53,3.57.83-1.31q.69-1.1,1.2-2.1a14.65,14.65,0,0,0,.83-2,11.72,11.72,0,0,0,.47-1.93,13.17,13.17,0,0,0,.15-2,5,5,0,0,0-.08-.88q-.08-.46-.19-.94T88.55,17a5.33,5.33,0,0,1-.08-.92,2.45,2.45,0,0,1,.17-.9,2,2,0,0,1,.5-.73,2.34,2.34,0,0,1,.82-.48,3.35,3.35,0,0,1,1.13-.17,2.89,2.89,0,0,1,1.38.31,2.71,2.71,0,0,1,.93.81,3.38,3.38,0,0,1,.53,1.15,5.87,5.87,0,0,1,.18,1.3,8.86,8.86,0,0,1-.5,2.84,19.15,19.15,0,0,1-1.48,3.31,32.07,32.07,0,0,1-2.34,3.58,42.32,42.32,0,0,1-3.07,3.66l-2.2,2.39-3.17.2Z"/><path d="M95.45,30.9q.3-2,.76-5.44t1.09-8.25l-1.9-1.06.26-1.47,6.61-.86.91.4-2.11,15.06q-.18,1.26.58,1.26a1.38,1.38,0,0,0,.61-.17,6.69,6.69,0,0,0,.91-.59l.46,1.21q-.15.18-.53.58a5.69,5.69,0,0,1-1,.79,7,7,0,0,1-1.45.7,5.66,5.66,0,0,1-1.93.31,4.09,4.09,0,0,1-2.61-.69A1.8,1.8,0,0,1,95.45,30.9Z"/><path class="ae8da5f3-f254-40ab-a474-d75b73a131b7" d="M100.9,10.94a2.36,2.36,0,0,1-1-.24,2.87,2.87,0,0,1-.86-.63,3.06,3.06,0,0,1-.58-.88,2.32,2.32,0,0,1-.2-1,3.62,3.62,0,0,1,.25-1.26,3.16,3.16,0,0,1,.64-1,3,3,0,0,1,1-.69,3.46,3.46,0,0,1,1.36-.26,2.88,2.88,0,0,1,1.18.23,2.93,2.93,0,0,1,.89.6,2.49,2.49,0,0,1,.56.85,2.39,2.39,0,0,1,.17,1,4.31,4.31,0,0,1-.22,1.3,3,3,0,0,1-.62,1.06,2.88,2.88,0,0,1-1,.72A3.92,3.92,0,0,1,100.9,10.94Z"/><path d="M105,25.93a13.68,13.68,0,0,1,.81-4.87A11.81,11.81,0,0,1,108,17.22a10.41,10.41,0,0,1,3.4-2.52,9.94,9.94,0,0,1,4.23-.91,8,8,0,0,1,2.42.32,4.7,4.7,0,0,1,1.67.88,3.64,3.64,0,0,1,1,1.32,4.5,4.5,0,0,1,.36,1.63,6,6,0,0,1-.41,2.45,6.08,6.08,0,0,1-1.24,1.91,8.2,8.2,0,0,1-1.84,1.43,11.86,11.86,0,0,1-2.2,1,15.64,15.64,0,0,1-2.32.58,14.67,14.67,0,0,1-2.21.22,6.94,6.94,0,0,0,.83,3.81A2.59,2.59,0,0,0,114,30.56a5.39,5.39,0,0,0,1.76-.26,5.69,5.69,0,0,0,1.36-.67,5.84,5.84,0,0,0,1-.88q.44-.48.77-.91l1.06,1.7a8.69,8.69,0,0,1-1,1.24,7.94,7.94,0,0,1-1.63,1.3,10.46,10.46,0,0,1-2.26,1,9.21,9.21,0,0,1-2.87.42,7.81,7.81,0,0,1-3.36-.65,6.21,6.21,0,0,1-2.24-1.73,6.88,6.88,0,0,1-1.25-2.43A10,10,0,0,1,105,25.93Zm5.93-2.39a5.44,5.44,0,0,0,1.6-.4,5.76,5.76,0,0,0,1.63-1,5.22,5.22,0,0,0,1.24-1.59,4.38,4.38,0,0,0,.45-2.16,4,4,0,0,0-.37-1.72,1.05,1.05,0,0,0-1-.58,2,2,0,0,0-1.13.34,3.24,3.24,0,0,0-.88.91,6.16,6.16,0,0,0-.65,1.32,12.53,12.53,0,0,0-.45,1.58q-.18.83-.29,1.68T110.89,23.54Z"/><path d="M141.89,33.17l-3.67.17-1-6.16-.55-4.43-.23-2.54-.69,2.54-1.22,3.5L131.8,33.1l-4.43.26L126,27.17l-2.13-9.45a1.85,1.85,0,0,0-.28-.72.53.53,0,0,0-.43-.21,1.16,1.16,0,0,0-.45.07l-.36.18-.48-1.29a3.93,3.93,0,0,1,.5-.47,6,6,0,0,1,1-.64,7.86,7.86,0,0,1,1.31-.57,4.85,4.85,0,0,1,1.56-.25,3.52,3.52,0,0,1,2.21.58,2.59,2.59,0,0,1,.91,1.68l1.32,9.69.43,3.48,1.44-4.66L135.63,14h5.23l1.47,12.38.26,2.74.78-1.31q.69-1.1,1.21-2.1a15.85,15.85,0,0,0,.87-2,12,12,0,0,0,.52-1.93,11.3,11.3,0,0,0,.17-2,5,5,0,0,0-.08-.88q-.08-.46-.19-.94t-.19-.95a5.33,5.33,0,0,1-.08-.92,2.44,2.44,0,0,1,.17-.9,2,2,0,0,1,.5-.73,2.34,2.34,0,0,1,.82-.48,3.36,3.36,0,0,1,1.13-.17,2.89,2.89,0,0,1,1.38.31,2.72,2.72,0,0,1,.93.81,3.36,3.36,0,0,1,.53,1.15,5.82,5.82,0,0,1,.18,1.3,6,6,0,0,1-.36,2,19.08,19.08,0,0,1-1,2.39q-.61,1.26-1.4,2.57t-1.6,2.52q-.82,1.2-1.6,2.23t-1.38,1.72Z"/><path class="2509c837-8d17-4b5e-ae2f-20d919550a69" d="M145.09,32.75a.67.67,0,0,1,.21-.5.64.64,0,0,1,.44-.18.5.5,0,0,1,.22,0,.47.47,0,0,1,.16.12.51.51,0,0,1,.09.17.74.74,0,0,1,0,.5.64.64,0,0,1-.16.21.64.64,0,0,1-.22.12.76.76,0,0,1-.24,0,.41.41,0,0,1-.18,0,.43.43,0,0,1-.15-.11.56.56,0,0,1-.1-.17A.6.6,0,0,1,145.09,32.75Z"/><path class="2509c837-8d17-4b5e-ae2f-20d919550a69" d="M149.54,31.73l0-.3c0-.11,0-.22,0-.33s0-.22,0-.33,0-.22,0-.31a1.46,1.46,0,0,0,0-.25.43.43,0,0,0-.06-.15.18.18,0,0,0-.09-.07l-.14,0a.41.41,0,0,0-.19.06,1,1,0,0,0-.21.16,1.83,1.83,0,0,0-.21.24,2.3,2.3,0,0,0-.18.29l-.34,2.5H147.1l.44-3.25-.36-.2.06-.3,1.26-.18.18.08-.05.71a2.18,2.18,0,0,1,.24-.31,1.73,1.73,0,0,1,.28-.25,1.32,1.32,0,0,1,.33-.17,1.11,1.11,0,0,1,.37-.06,1.27,1.27,0,0,1,.34,0,.75.75,0,0,1,.28.14.72.72,0,0,1,.2.26,1.22,1.22,0,0,1,.1.39,1.72,1.72,0,0,1,.56-.62,1.41,1.41,0,0,1,.78-.22,1.2,1.2,0,0,1,.36.05.67.67,0,0,1,.28.17.83.83,0,0,1,.19.32,1.49,1.49,0,0,1,.07.48,2.09,2.09,0,0,1,0,.22q0,.14,0,.31l-.05.35-.05.32,0,.27,0,.27c0,.09,0,.18,0,.26a1.9,1.9,0,0,0,0,.21c0,.08,0,.13,0,.15a.15.15,0,0,0,.09,0,.27.27,0,0,0,.12,0l.18-.12.09.25-.1.12a1.13,1.13,0,0,1-.2.16,1.4,1.4,0,0,1-.3.14,1.19,1.19,0,0,1-.4.06,1,1,0,0,1-.36-.05.52.52,0,0,1-.21-.14.41.41,0,0,1-.09-.19.94.94,0,0,1,0-.2,1.49,1.49,0,0,1,0-.18c0-.07,0-.15,0-.24l.05-.28.05-.29.05-.3c0-.11,0-.22.05-.33s0-.23,0-.34a2.89,2.89,0,0,0,0-.32,1.51,1.51,0,0,0,0-.23.45.45,0,0,0,0-.14.18.18,0,0,0-.08-.08l-.12,0a.48.48,0,0,0-.2.05,1,1,0,0,0-.21.14,1.41,1.41,0,0,0-.2.22,2,2,0,0,0-.18.28c0,.14,0,.29,0,.43s0,.29,0,.42l-.2,1.7h-1.13Z"/><path class="2509c837-8d17-4b5e-ae2f-20d919550a69" d="M154.21,30l-.36-.2.05-.3,1.26-.18.18.08-.05.71a2.07,2.07,0,0,1,.25-.32,1.56,1.56,0,0,1,.29-.25,1.39,1.39,0,0,1,.34-.16,1.26,1.26,0,0,1,.38-.06,1.2,1.2,0,0,1,.36.05.68.68,0,0,1,.28.17.85.85,0,0,1,.19.32,1.46,1.46,0,0,1,.07.48,2.09,2.09,0,0,1,0,.22q0,.14,0,.31l-.05.35-.05.32,0,.27,0,.27c0,.09,0,.18,0,.26a1.9,1.9,0,0,0,0,.21c0,.08,0,.13,0,.15a.15.15,0,0,0,.09,0,.27.27,0,0,0,.12,0l.18-.12.09.25-.1.12a1.13,1.13,0,0,1-.2.16,1.38,1.38,0,0,1-.3.14,1.19,1.19,0,0,1-.4.06,1,1,0,0,1-.36-.05.52.52,0,0,1-.21-.14.41.41,0,0,1-.09-.19.94.94,0,0,1,0-.2,1.73,1.73,0,0,1,0-.18c0-.07,0-.15,0-.24l.05-.28.05-.29.05-.3c0-.11,0-.22.05-.33s0-.23,0-.34a2.89,2.89,0,0,0,0-.32,1.51,1.51,0,0,0,0-.23.43.43,0,0,0,0-.14.18.18,0,0,0-.08-.08L156,30a.41.41,0,0,0-.21.07,1.08,1.08,0,0,0-.22.18,1.79,1.79,0,0,0-.21.26,2.35,2.35,0,0,0-.18.32l-.33,2.43h-1.09Z"/></svg>