<?xml version="1.0" encoding="utf-8"?>
<!-- Generator: Adobe Illustrator 21.0.0, SVG Export Plug-In . SVG Version: 6.00 Build 0)  -->
<svg version="1.1" id="Layer_1" xmlns="http://www.w3.org/2000/svg" xmlns:xlink="http://www.w3.org/1999/xlink" x="0px" y="0px"
	 viewBox="0 0 95.6 66.5" style="enable-background:new 0 0 95.6 66.5;" xml:space="preserve">
<g>
	<path d="M48.9,40.9c0,11.3,9.1,20.4,20.4,20.4s19.5-8.8,20.4-20C91.2,24.1,78.2,9.8,62.4,5.2c5.4,3.3,9.1,8.9,9.8,15.5
		c-0.9-0.1-1.9-0.2-2.8-0.2C58,20.5,48.9,29.6,48.9,40.9z"/>
	<path d="M5.8,40.9c0,11.3,9.1,20.4,20.4,20.4s19.5-8.8,20.4-20C48.1,24.2,35,9.8,19.2,5.2c5.4,3.3,9.1,8.9,9.8,15.5
		c-0.9-0.1-1.9-0.2-2.8-0.2C14.9,20.5,5.8,29.6,5.8,40.9z"/>
</g>
</svg>
