<?xml version="1.0" encoding="utf-8"?>
<!-- Generator: Adobe Illustrator 21.0.0, SVG Export Plug-In . SVG Version: 6.00 Build 0)  -->
<svg version="1.1" id="Layer_1" xmlns="http://www.w3.org/2000/svg" xmlns:xlink="http://www.w3.org/1999/xlink" x="0px" y="0px"
	 viewBox="0 0 95.6 66.5" style="enable-background:new 0 0 95.6 66.5;" xml:space="preserve">
<style type="text/css">
	.st0{fill:#FFFFFF;}
</style>
<g>
	<path class="st0" d="M46.7,25.6c0-11.3-9.1-20.4-20.4-20.4S6.8,14,5.9,25.2C4.4,42.4,17.4,56.7,33.2,61.3
		c-5.4-3.3-9.1-8.9-9.8-15.5c0.9,0.1,1.9,0.2,2.8,0.2C37.6,46,46.7,36.9,46.7,25.6z"/>
	<path class="st0" d="M89.8,25.6c0-11.3-9.1-20.4-20.4-20.4C58.1,5.2,49.9,14,49,25.2c-1.5,17.1,11.6,31.5,27.4,36.1
		c-5.4-3.3-9.1-8.9-9.8-15.5c0.9,0.1,1.9,0.2,2.8,0.2C80.7,46,89.8,36.9,89.8,25.6z"/>
</g>
</svg>
