<svg id="Layer_1" data-name="Layer 1" xmlns="http://www.w3.org/2000/svg" viewBox="0 0 500 500"><defs><style>.cls-1{fill:#a7a9ac;}</style></defs><title>Artboard 8</title><circle class="cls-1" cx="133.83" cy="167.88" r="13.82"/><path class="cls-1" d="M107.84,260.39H221.19c10,0,15.46-5.48,15.46-15.45v-103c0-10-5.49-15.46-15.46-15.46H107.84c-10,0-15.46,5.49-15.46,15.46V244.94C92.38,254.91,97.87,260.39,107.84,260.39Zm0-113.35a5.56,5.56,0,0,1,5.15-5.15H216a5.56,5.56,0,0,1,5.15,5.15v92.74a5.57,5.57,0,0,1-5.15,5.16H113a5.57,5.57,0,0,1-5.15-5.16V147Z"/><polygon class="cls-1" points="219.49 242.49 120.02 242.49 120.02 231.44 153.17 198.28 169.75 214.86 202.91 181.7 219.49 198.28 219.49 242.49"/><path class="cls-1" d="M413.89,142.36c0,2-1.35,3.65-3,3.65H252.8c-1.66,0-3-1.64-3-3.65v-9c0-2,1.35-3.65,3-3.65H410.88c1.66,0,3,1.64,3,3.65Z"/><path class="cls-1" d="M413.89,177.9c0,2-1.35,3.65-3,3.65H252.8c-1.66,0-3-1.64-3-3.65v-9c0-2,1.35-3.64,3-3.64H410.88c1.66,0,3,1.64,3,3.64Z"/><path class="cls-1" d="M413.89,214.66c0,2-1.35,3.65-3,3.65H252.8c-1.66,0-3-1.64-3-3.65v-9c0-2,1.35-3.64,3-3.64H410.88c1.66,0,3,1.64,3,3.64Z"/><path class="cls-1" d="M413.89,250.21c0,2-1.35,3.64-3,3.64H252.8c-1.66,0-3-1.64-3-3.64v-9c0-2,1.35-3.65,3-3.65H410.88c1.66,0,3,1.64,3,3.65Z"/><path class="cls-1" d="M413.89,286.05c0,2-1.35,3.65-3,3.65H252.8c-1.66,0-3-1.64-3-3.65v-9c0-2,1.35-3.64,3-3.64H410.88c1.66,0,3,1.64,3,3.64Z"/><path class="cls-1" d="M413.89,321.6c0,2-1.35,3.64-3,3.64H252.8c-1.66,0-3-1.64-3-3.64v-9c0-2,1.35-3.65,3-3.65H410.88c1.66,0,3,1.64,3,3.65Z"/><path class="cls-1" d="M236.65,286.05c0,2-1.21,3.65-2.69,3.65H92.79c-1.47,0-2.68-1.64-2.68-3.65v-9c0-2,1.21-3.64,2.68-3.64H234c1.48,0,2.69,1.64,2.69,3.64Z"/><path class="cls-1" d="M236.65,321.6c0,2-1.21,3.64-2.69,3.64H92.79c-1.47,0-2.68-1.64-2.68-3.64v-9c0-2,1.21-3.65,2.68-3.65H234c1.48,0,2.69,1.64,2.69,3.65Z"/><path class="cls-1" d="M236.65,358.36c0,2-1.21,3.64-2.69,3.64H92.79c-1.47,0-2.68-1.64-2.68-3.64v-9c0-2,1.21-3.64,2.68-3.64H234c1.48,0,2.69,1.64,2.69,3.64Z"/><path class="cls-1" d="M413.89,358.36c0,2-1.35,3.64-3,3.64H252.8c-1.66,0-3-1.64-3-3.64v-9c0-2,1.35-3.64,3-3.64H410.88c1.66,0,3,1.64,3,3.64Z"/></svg>