<svg id="Layer_1" data-name="Layer 1" xmlns="http://www.w3.org/2000/svg" viewBox="0 0 500 500"><defs><style>.cls-1{fill:#a7a9ac;}</style></defs><title>Artboard 9</title><circle class="cls-1" cx="364.92" cy="167.99" r="13.82"/><path class="cls-1" d="M406.37,245V142c0-10-5.49-15.46-15.46-15.46H277.56c-10,0-15.45,5.49-15.45,15.46V245c0,10,5.48,15.46,15.45,15.46H390.91C400.88,260.5,406.37,255,406.37,245Zm-15.45-97.89v92.74a5.57,5.57,0,0,1-5.16,5.15h-103a5.57,5.57,0,0,1-5.16-5.15V147.15a5.57,5.57,0,0,1,5.16-5.15h103a5.56,5.56,0,0,1,5.15,5.15Z"/><polygon class="cls-1" points="279.26 242.59 378.74 242.59 378.74 231.54 345.58 198.38 329 214.97 295.84 181.81 279.26 198.38 279.26 242.59"/><path class="cls-1" d="M84.86,142.47c0,2,1.36,3.65,3,3.65H246c1.65,0,3-1.64,3-3.65v-9c0-2-1.36-3.65-3-3.65H87.87c-1.65,0-3,1.64-3,3.65Z"/><path class="cls-1" d="M84.86,178c0,2,1.36,3.65,3,3.65H246c1.65,0,3-1.64,3-3.65v-9c0-2-1.36-3.64-3-3.64H87.87c-1.65,0-3,1.64-3,3.64Z"/><path class="cls-1" d="M84.86,214.77c0,2,1.36,3.65,3,3.65H246c1.65,0,3-1.64,3-3.65v-9c0-2-1.36-3.65-3-3.65H87.87c-1.65,0-3,1.65-3,3.65Z"/><path class="cls-1" d="M84.86,250.32c0,2,1.36,3.64,3,3.64H246c1.65,0,3-1.64,3-3.64v-9c0-2-1.36-3.64-3-3.64H87.87c-1.65,0-3,1.64-3,3.64Z"/><path class="cls-1" d="M84.86,286.16c0,2,1.36,3.65,3,3.65H246c1.65,0,3-1.64,3-3.65v-9c0-2-1.36-3.64-3-3.64H87.87c-1.65,0-3,1.64-3,3.64Z"/><path class="cls-1" d="M84.86,321.71c0,2,1.36,3.64,3,3.64H246c1.65,0,3-1.64,3-3.64v-9c0-2-1.36-3.64-3-3.64H87.87c-1.65,0-3,1.64-3,3.64Z"/><path class="cls-1" d="M262.11,286.16c0,2,1.21,3.65,2.69,3.65H406c1.48,0,2.69-1.64,2.69-3.65v-9c0-2-1.21-3.64-2.69-3.64H264.8c-1.48,0-2.69,1.64-2.69,3.64Z"/><path class="cls-1" d="M262.11,321.71c0,2,1.21,3.64,2.69,3.64H406c1.48,0,2.69-1.64,2.69-3.64v-9c0-2-1.21-3.64-2.69-3.64H264.8c-1.48,0-2.69,1.64-2.69,3.64Z"/><path class="cls-1" d="M262.11,358.46c0,2,1.21,3.65,2.69,3.65H406c1.48,0,2.69-1.64,2.69-3.65v-9c0-2-1.21-3.64-2.69-3.64H264.8c-1.48,0-2.69,1.64-2.69,3.64Z"/><path class="cls-1" d="M84.86,358.46c0,2,1.36,3.65,3,3.65H246c1.65,0,3-1.64,3-3.65v-9c0-2-1.36-3.64-3-3.64H87.87c-1.65,0-3,1.64-3,3.64Z"/></svg>