<svg id="Layer_1" data-name="Layer 1" xmlns="http://www.w3.org/2000/svg" viewBox="0 0 500 500"><defs><style>.cls-1{fill:#a7a9ac;}</style></defs><title>Artboard 7</title><circle class="cls-1" cx="178.33" cy="179.6" r="29.48"/><path class="cls-1" d="M125.27,397.71H384.65c22.82,0,35.37-12.55,35.37-35.37V126.54c0-22.82-12.56-35.37-35.37-35.37H125.27c-22.8,0-35.37,12.55-35.37,35.37v235.8C89.9,385.16,102.47,397.71,125.27,397.71Zm0-259.38c0-5.86,5.93-11.79,11.8-11.79H372.86c5.86,0,11.79,5.93,11.79,11.79V350.55c0,5.86-5.93,11.79-11.79,11.79H137.06c-5.86,0-11.79-5.93-11.79-11.79V138.33Z"/><polygon class="cls-1" points="361.07 244.44 325.7 209.07 254.96 279.81 219.59 244.44 148.85 315.18 148.85 338.76 361.07 338.76 361.07 244.44"/></svg>