<svg id="Layer_1" data-name="Layer 1" xmlns="http://www.w3.org/2000/svg" viewBox="0 0 500 500"><defs><style>.cls-1{fill:#a7a9ac;}</style></defs><title>Artboard 5</title><circle class="cls-1" cx="135.11" cy="158.17" r="13.82"/><path class="cls-1" d="M109.12,250.68H222.47c10,0,15.46-5.49,15.46-15.46v-103c0-10-5.49-15.46-15.46-15.46H109.12c-10,0-15.46,5.49-15.46,15.46v103C93.66,245.19,99.15,250.68,109.12,250.68Zm0-113.35a5.56,5.56,0,0,1,5.15-5.15H217.32a5.56,5.56,0,0,1,5.15,5.15v92.74a5.56,5.56,0,0,1-5.15,5.15h-103a5.56,5.56,0,0,1-5.15-5.15V137.33Z"/><polygon class="cls-1" points="220.77 232.77 121.29 232.77 121.29 221.72 154.45 188.56 171.03 205.14 204.19 171.98 220.77 188.56 220.77 232.77"/><path class="cls-1" d="M415.17,132.65c0,2-1.35,3.64-3,3.64H254.07c-1.65,0-3-1.64-3-3.64v-9c0-2,1.36-3.65,3-3.65H412.16c1.66,0,3,1.64,3,3.65Z"/><path class="cls-1" d="M415.17,168.19c0,2-1.35,3.65-3,3.65H254.07c-1.65,0-3-1.64-3-3.65v-9c0-2,1.36-3.65,3-3.65H412.16c1.66,0,3,1.64,3,3.65Z"/><path class="cls-1" d="M415.17,205c0,2-1.35,3.64-3,3.64H254.07c-1.65,0-3-1.64-3-3.64v-9c0-2,1.36-3.65,3-3.65H412.16c1.66,0,3,1.64,3,3.65Z"/><path class="cls-1" d="M415.17,240.49c0,2-1.35,3.65-3,3.65H254.07c-1.65,0-3-1.64-3-3.65v-9c0-2,1.36-3.64,3-3.64H412.16c1.66,0,3,1.64,3,3.64Z"/><path class="cls-1" d="M415.17,276.34c0,2-1.35,3.65-3,3.65H254.07c-1.65,0-3-1.64-3-3.65v-9c0-2,1.36-3.65,3-3.65H412.16c1.66,0,3,1.64,3,3.65Z"/><path class="cls-1" d="M415.17,311.88c0,2-1.35,3.65-3,3.65H254.07c-1.65,0-3-1.64-3-3.65v-9c0-2,1.36-3.64,3-3.64H412.16c1.66,0,3,1.64,3,3.64Z"/><path class="cls-1" d="M415.17,348.64c0,2-1.35,3.65-3,3.65H254.07c-1.65,0-3-1.64-3-3.65v-9c0-2,1.36-3.65,3-3.65H412.16c1.66,0,3,1.65,3,3.65Z"/></svg>