<svg id="Layer_1" data-name="Layer 1" xmlns="http://www.w3.org/2000/svg" viewBox="0 0 500 500"><defs><style>.cls-1{fill:#a7a9ac;}</style></defs><title>Artboard 6</title><circle class="cls-1" cx="367.41" cy="157.89" r="13.82"/><path class="cls-1" d="M408.86,234.94v-103c0-10-5.49-15.46-15.46-15.46H280.05c-10,0-15.45,5.48-15.45,15.46v103c0,10,5.48,15.46,15.45,15.46H393.4C403.37,250.4,408.86,244.91,408.86,234.94Zm-15.45-97.89v92.74a5.57,5.57,0,0,1-5.16,5.15h-103a5.57,5.57,0,0,1-5.16-5.15V137.05a5.57,5.57,0,0,1,5.16-5.15h103a5.56,5.56,0,0,1,5.15,5.15Z"/><polygon class="cls-1" points="281.76 232.49 381.23 232.49 381.23 221.44 348.07 188.28 331.49 204.86 298.33 171.7 281.76 188.28 281.76 232.49"/><path class="cls-1" d="M87.35,132.37c0,2,1.36,3.64,3,3.64H248.45c1.65,0,3-1.64,3-3.64v-9c0-2-1.36-3.64-3-3.64H90.36c-1.65,0-3,1.64-3,3.64Z"/><path class="cls-1" d="M87.35,167.91c0,2,1.36,3.64,3,3.64H248.45c1.65,0,3-1.64,3-3.64v-9c0-2-1.36-3.65-3-3.65H90.36c-1.65,0-3,1.64-3,3.65Z"/><path class="cls-1" d="M87.35,204.67c0,2,1.36,3.64,3,3.64H248.45c1.65,0,3-1.64,3-3.64v-9c0-2-1.36-3.65-3-3.65H90.36c-1.65,0-3,1.64-3,3.65Z"/><path class="cls-1" d="M87.35,240.21c0,2,1.36,3.65,3,3.65H248.45c1.65,0,3-1.64,3-3.65v-9c0-2-1.36-3.65-3-3.65H90.36c-1.65,0-3,1.64-3,3.65Z"/><path class="cls-1" d="M87.35,276.06c0,2,1.36,3.64,3,3.64H248.45c1.65,0,3-1.64,3-3.64v-9c0-2-1.36-3.65-3-3.65H90.36c-1.65,0-3,1.64-3,3.65Z"/><path class="cls-1" d="M87.35,311.6c0,2,1.36,3.65,3,3.65H248.45c1.65,0,3-1.64,3-3.65v-9c0-2-1.36-3.65-3-3.65H90.36c-1.65,0-3,1.64-3,3.65Z"/><path class="cls-1" d="M87.35,348.36c0,2,1.36,3.65,3,3.65H248.45c1.65,0,3-1.64,3-3.65v-9c0-2-1.36-3.65-3-3.65H90.36c-1.65,0-3,1.64-3,3.65Z"/></svg>