<svg id="Layer_1" data-name="Layer 1" xmlns="http://www.w3.org/2000/svg" viewBox="0 0 500 500"><defs><style>.cls-1{font-size:145.47px;font-family:Roboto-Regular, Roboto;letter-spacing:-0.05em;}.cls-1,.cls-3{fill:#a7a9ac;}.cls-2{letter-spacing:0em;}</style></defs><title>Artboard 3</title><text class="cls-1" transform="translate(158.54 295.75)">T<tspan class="cls-2" x="79.77" y="0">ext</tspan></text><path class="cls-3" d="M60.13,202c0,.24,0,.47,0,.72,0,.08,0,.15,0,.23s0,.32,0,.48l0,0A20,20,0,1,0,82.91,183a19.41,19.41,0,0,1,18.58-13.79v-7.13A41.37,41.37,0,0,0,60.13,202Z"/><path class="cls-3" d="M112,202c0,.24,0,.47,0,.72,0,.08,0,.15,0,.23s0,.32,0,.48l0,0A20,20,0,1,0,134.74,183a19.41,19.41,0,0,1,18.58-13.79v-7.13A41.37,41.37,0,0,0,112,202Z"/></svg>